<?xml version="1.0" standalone="no"?>
<!DOCTYPE svg PUBLIC "-//W3C//DTD SVG 20010904//EN"
 "http://www.w3.org/TR/2001/REC-SVG-20010904/DTD/svg10.dtd">
<svg version="1.0" xmlns="http://www.w3.org/2000/svg"
 width="512.000000pt" height="512.000000pt" viewBox="0 0 512.000000 512.000000"
 preserveAspectRatio="xMidYMid meet">
<metadata>
Created by potrace 1.14, written by Peter Selinger 2001-2017
</metadata>
<g transform="translate(0.000000,512.000000) scale(0.100000,-0.100000)"
fill="#000000" stroke="none">
<path d="M2434 4943 c-65 -93 -263 -370 -439 -618 -176 -247 -327 -460 -335
-472 -8 -12 -91 -129 -185 -259 -93 -131 -177 -248 -185 -260 -18 -27 -125
-178 -184 -259 -24 -33 -116 -163 -205 -288 l-161 -228 47 -67 c26 -37 51 -71
56 -77 4 -5 75 -104 157 -220 81 -115 168 -237 191 -270 24 -33 137 -193 252
-355 115 -162 226 -317 246 -345 21 -27 204 -284 406 -570 430 -607 425 -599
446 -632 l17 -25 155 219 c86 120 193 271 239 335 46 65 91 128 100 140 9 13
89 124 177 248 87 124 169 239 181 255 22 31 145 204 206 290 199 280 310 437
338 475 41 56 371 521 402 567 l23 34 -40 57 c-23 31 -141 199 -264 372 -123
173 -236 333 -252 355 -26 35 -672 943 -1101 1548 -85 119 -158 217 -162 217
-4 0 -61 -75 -126 -167z"/>
</g>
</svg>
