<svg id="Layer_1" data-name="Layer 1" xmlns="http://www.w3.org/2000/svg" viewBox="0 0 972 264"><defs><style>.cls-1{fill:#fff;}.cls-2{fill:#e7011b;}</style></defs><rect width="972" height="264"/><path class="cls-1" d="M136.16,151.61l.65-.42q3.63-2.15,5.13-2.14,3.31,0,7.17,6,2.35,3.75,2.36,6.1a5,5,0,0,1-1.45,3.63,20.88,20.88,0,0,1-4.33,3.21c-.64.43-1.55,1-2.73,1.72a39.42,39.42,0,0,1-7.22,2.78,36.36,36.36,0,0,1-10.92,1.71,39.63,39.63,0,0,1-9.89-1.34,43.56,43.56,0,0,1-10.71-4.49,44.06,44.06,0,0,1-9.89-7.7A35.27,35.27,0,0,1,87.11,149a41.47,41.47,0,0,1-2.84-15.57,39.4,39.4,0,0,1,2.78-15,34.71,34.71,0,0,1,7.12-11.23,41.72,41.72,0,0,1,9.89-7.49,45.81,45.81,0,0,1,10.87-4.39,41.72,41.72,0,0,1,10.21-1.34,35.67,35.67,0,0,1,10.22,1.55,36.32,36.32,0,0,1,7.87,3.16l2.56,1.5a29.39,29.39,0,0,1,3,2,9,9,0,0,1,1.92,2.19,5.36,5.36,0,0,1,.91,3,10.07,10.07,0,0,1-2.24,5.77q-4.19,5.79-7.49,5.78-1.93,0-5.46-2.35-4.5-3.64-12-3.64a20.71,20.71,0,0,0-6.84,1.23,26.51,26.51,0,0,0-6.8,3.59,17.68,17.68,0,0,0-5.4,6.63,21.17,21.17,0,0,0-2.14,9.63,21.46,21.46,0,0,0,2.14,9.74,17.83,17.83,0,0,0,5.46,6.68,25.28,25.28,0,0,0,6.84,3.59,21.45,21.45,0,0,0,6.74,1.17,22.33,22.33,0,0,0,6.26-.85,16.44,16.44,0,0,0,4.23-1.71Z"/><path class="cls-1" d="M236.21,162.1c-1.86-2.28-2.78-4.17-2.78-5.67q0-3.21,4.6-7.71a7.81,7.81,0,0,1,5.35-2.56q3.31,0,8.13,4.81l.54.54a18.15,18.15,0,0,0,1.28,1.39,17.74,17.74,0,0,0,3.32,2.3,9.49,9.49,0,0,0,4.81,1.44q9.94,0,10-8.13,0-2.46-2.73-4.12a20.12,20.12,0,0,0-6.79-2.41,61.36,61.36,0,0,1-17.55-6.31,17.76,17.76,0,0,1-6.79-7.11,23.64,23.64,0,0,1-2.73-11.72,22.48,22.48,0,0,1,7-16.43q7-7,19.1-7a39.22,39.22,0,0,1,11.71,1.65c3.53,1.11,6,2.23,7.33,3.37l2.14,1.61.54.43q3.32,3.11,3.31,5.13,0,2.25-2.56,6-3.64,5.34-7.49,5.35a11.05,11.05,0,0,1-5.57-2.14,15.16,15.16,0,0,1-1.23-1.07,12,12,0,0,0-1.66-1.34,9.65,9.65,0,0,0-2.51-1,15.36,15.36,0,0,0-4.12-.49,8.23,8.23,0,0,0-4.87,1.66,5.13,5.13,0,0,0-2.3,4.34,5.71,5.71,0,0,0,2.73,5,16.77,16.77,0,0,0,6.79,2.47,76.6,76.6,0,0,1,8.88,2,55,55,0,0,1,8.89,3.26,15.64,15.64,0,0,1,6.79,6.69,23.44,23.44,0,0,1,2.73,11.82,25.75,25.75,0,0,1-2.78,12.14,21.38,21.38,0,0,1-7.23,8.19,34.9,34.9,0,0,1-9.14,4.28,33,33,0,0,1-9.42,1.39,35.89,35.89,0,0,1-9.52-1.23,27.69,27.69,0,0,1-7.33-3,38.61,38.61,0,0,1-4.93-3.58,17.22,17.22,0,0,1-2.94-3.1Z"/><path class="cls-1" d="M357.12,94.58a16.48,16.48,0,0,1,4.6.54,8.5,8.5,0,0,1,2.78,1.28A4.51,4.51,0,0,1,366,98.65a10.57,10.57,0,0,1,.53,2.51c0,.68,0,1.7,0,3v32.32a40.72,40.72,0,0,1-2.3,13.48,43,43,0,0,1-6.52,12.14,31,31,0,0,1-11,8.88,33,33,0,0,1-15,3.37A32.08,32.08,0,0,1,316.94,171a31.17,31.17,0,0,1-10.86-8.93,43.21,43.21,0,0,1-8.67-25.74v-32.2a33.94,33.94,0,0,1,.16-3.8,8.7,8.7,0,0,1,1-2.84,4.69,4.69,0,0,1,2.89-2.25,23.57,23.57,0,0,1,10.91,0,4.51,4.51,0,0,1,2.84,2.25,10.44,10.44,0,0,1,1,2.89,24.38,24.38,0,0,1,.22,3.85v32.1a26.1,26.1,0,0,0,.75,6.26,25.58,25.58,0,0,0,2.4,6.1,12.33,12.33,0,0,0,4.87,4.87,15.21,15.21,0,0,0,7.6,1.82q7.82,0,11.66-5.78a23.53,23.53,0,0,0,3.86-13.37V103.46a22.9,22.9,0,0,1,.21-3.58,7.52,7.52,0,0,1,1.07-2.62,5,5,0,0,1,2.89-2A18.51,18.51,0,0,1,357.12,94.58Z"/><path class="cls-1" d="M415,100.25,443.9,160a14,14,0,0,1,1.82,5.46q0,3.84-6.21,7a14.4,14.4,0,0,1-6.1,1.82,5.1,5.1,0,0,1-3.05-1,6.37,6.37,0,0,1-1.92-2c-.4-.72-.95-1.79-1.66-3.22l-5.57-11.55H391.57L386,168c-.71,1.43-1.27,2.47-1.66,3.11a7.64,7.64,0,0,1-1.92,2,5,5,0,0,1-3.05,1,14.18,14.18,0,0,1-6.1-1.82c-4.14-2-6.21-4.28-6.21-6.84a14,14,0,0,1,1.82-5.46l28.89-59.81a9.35,9.35,0,0,1,3.58-4,9.48,9.48,0,0,1,5.09-1.5Q412.23,94.69,415,100.25Zm-8.67,25.68-7.06,14.66h14.23Z"/><path class="cls-1" d="M470.54,157.28h29.1a21.58,21.58,0,0,1,3.16.17,7.82,7.82,0,0,1,2.3.8,3.69,3.69,0,0,1,1.82,2.35,15.85,15.85,0,0,1,.53,4.6,15.38,15.38,0,0,1-.53,4.5,3.84,3.84,0,0,1-1.87,2.4,7.92,7.92,0,0,1-2.41.86,22,22,0,0,1-3.1.16H461a16.85,16.85,0,0,1-4.6-.53,8.56,8.56,0,0,1-2.79-1.29,4.49,4.49,0,0,1-1.44-2.19,9.85,9.85,0,0,1-.54-2.46c0-.68,0-1.7,0-3.05V104.11a30.74,30.74,0,0,1,.16-3.7,8.65,8.65,0,0,1,1-2.83,4.69,4.69,0,0,1,2.89-2.25,18.58,18.58,0,0,1,5.45-.64,16.85,16.85,0,0,1,4.6.53,8.56,8.56,0,0,1,2.79,1.29A4.49,4.49,0,0,1,470,98.7a10,10,0,0,1,.54,2.46c0,.68.05,1.7.05,3Z"/><path class="cls-1" d="M591.77,151.61l.64-.42c2.42-1.43,4.14-2.14,5.14-2.14q3.32,0,7.17,6c1.56,2.5,2.35,4.53,2.35,6.1a5,5,0,0,1-1.45,3.63,20.61,20.61,0,0,1-4.33,3.21c-.64.43-1.55,1-2.73,1.72a38.8,38.8,0,0,1-7.22,2.78,36.35,36.35,0,0,1-10.91,1.71,39.77,39.77,0,0,1-9.9-1.34,43.5,43.5,0,0,1-10.7-4.49,44.12,44.12,0,0,1-9.9-7.7A35.6,35.6,0,0,1,542.71,149a41.67,41.67,0,0,1-2.84-15.57,39.21,39.21,0,0,1,2.79-15,34.53,34.53,0,0,1,7.11-11.23,41.78,41.78,0,0,1,9.9-7.49,45.92,45.92,0,0,1,10.86-4.39,41.8,41.8,0,0,1,10.22-1.34,40.67,40.67,0,0,1,18.08,4.71l2.57,1.5a30.25,30.25,0,0,1,2.94,2,9,9,0,0,1,1.93,2.19,5.44,5.44,0,0,1,.91,3,10,10,0,0,1-2.25,5.77q-4.17,5.79-7.49,5.78-1.92,0-5.46-2.35-4.49-3.64-12-3.64a20.76,20.76,0,0,0-6.85,1.23,26.45,26.45,0,0,0-6.79,3.59,17.7,17.7,0,0,0-5.41,6.63,21.17,21.17,0,0,0-2.14,9.63A21.46,21.46,0,0,0,561,143.7a18,18,0,0,0,5.46,6.68,25.18,25.18,0,0,0,6.85,3.59,21.4,21.4,0,0,0,6.74,1.17,22.33,22.33,0,0,0,6.26-.85,16.18,16.18,0,0,0,4.22-1.71Z"/><path class="cls-1" d="M657.25,100.25,686.14,160a14,14,0,0,1,1.82,5.46q0,3.84-6.21,7a14.33,14.33,0,0,1-6.09,1.82,5.08,5.08,0,0,1-3-1,6.3,6.3,0,0,1-1.93-2c-.39-.72-.95-1.79-1.66-3.22l-5.56-11.55H633.82L628.25,168c-.71,1.43-1.26,2.47-1.65,3.11a7.87,7.87,0,0,1-1.93,2,5,5,0,0,1-3,1,14.26,14.26,0,0,1-6.1-1.82c-4.14-2-6.2-4.28-6.2-6.84a14,14,0,0,1,1.81-5.46L640,100.15a9.85,9.85,0,0,1,8.67-5.46Q654.46,94.69,657.25,100.25Zm-8.67,25.68-7.06,14.66h14.23Z"/><path class="cls-1" d="M753.87,159.85a17.06,17.06,0,0,1,1.61,5.57q0,4.07-6.64,6.84a15,15,0,0,1-5.77,1.5,5.1,5.1,0,0,1-3.16-1,7,7,0,0,1-1.93-2.09c-.39-.71-.91-1.82-1.55-3.32q-2.35-5.34-6.85-16.05l-3.31.22H712.78V163.6a30.44,30.44,0,0,1-.16,3.69,8.38,8.38,0,0,1-1,2.83,4.69,4.69,0,0,1-2.89,2.25,18.7,18.7,0,0,1-5.46.64,16.52,16.52,0,0,1-4.6-.53,8.71,8.71,0,0,1-2.78-1.28,4.6,4.6,0,0,1-1.45-2.2,9.35,9.35,0,0,1-.53-2.46c0-.68,0-1.69,0-3V104.11a30.74,30.74,0,0,1,.16-3.7,8.38,8.38,0,0,1,1-2.83,4.72,4.72,0,0,1,2.89-2.25,18.65,18.65,0,0,1,5.46-.64h23.11a26.51,26.51,0,0,1,9.26,1.77,34,34,0,0,1,9,5.08,25.2,25.2,0,0,1,7.06,9,28.33,28.33,0,0,1,2.78,12.62q0,12.09-8,19.9Q748.94,148.74,753.87,159.85Zm-41.09-27.28h13.7a10.26,10.26,0,0,0,6.21-2.36c2.06-1.56,3.1-4,3.1-7.17a8.34,8.34,0,0,0-3.1-7,10.34,10.34,0,0,0-6.42-2.41H712.78Z"/><path class="cls-1" d="M829.74,133.42a38.35,38.35,0,0,1-11.51,27.93A37.68,37.68,0,0,1,790.36,173H770.78a17.68,17.68,0,0,1-5.24-.64,4.89,4.89,0,0,1-2.89-2.08,7.8,7.8,0,0,1-1.07-2.89,26.88,26.88,0,0,1-.22-3.91V104a32.65,32.65,0,0,1,.16-3.75,8.76,8.76,0,0,1,1-2.78,4.69,4.69,0,0,1,2.89-2.25,19,19,0,0,1,5.46-.64q3.21,0,9.84.06t9.95,0q15.51,0,27.29,11.18A36.54,36.54,0,0,1,829.74,133.42Zm-18.94.43a19.22,19.22,0,0,0-6-14.39,19.76,19.76,0,0,0-14.18-5.83H780.3v40.44h10.38a20,20,0,0,0,13.91-5.72A18.87,18.87,0,0,0,810.8,133.85Z"/><path class="cls-1" d="M833.48,162.1q-2.78-3.42-2.78-5.67,0-3.21,4.6-7.71a7.83,7.83,0,0,1,5.35-2.56q3.32,0,8.13,4.81l.54.54a13.47,13.47,0,0,0,4.6,3.69,9.49,9.49,0,0,0,4.81,1.44q10,0,9.95-8.13c0-1.64-.9-3-2.72-4.12a20.18,20.18,0,0,0-6.8-2.41,61.65,61.65,0,0,1-17.55-6.31,17.76,17.76,0,0,1-6.79-7.11,23.64,23.64,0,0,1-2.73-11.72,22.52,22.52,0,0,1,7-16.43q7-7,19.1-7a39.33,39.33,0,0,1,11.72,1.65q5.3,1.66,7.32,3.37l2.14,1.61.54.43q3.32,3.11,3.32,5.13,0,2.25-2.57,6-3.64,5.34-7.49,5.35a11.05,11.05,0,0,1-5.57-2.14,15.16,15.16,0,0,1-1.23-1.07,12,12,0,0,0-1.65-1.34,9.75,9.75,0,0,0-2.52-1,15.36,15.36,0,0,0-4.12-.49,8.25,8.25,0,0,0-4.87,1.66,5.13,5.13,0,0,0-2.3,4.34,5.71,5.71,0,0,0,2.73,5,16.76,16.76,0,0,0,6.8,2.47,76.6,76.6,0,0,1,8.88,2,54.51,54.51,0,0,1,8.88,3.26,15.64,15.64,0,0,1,6.79,6.69,23.44,23.44,0,0,1,2.73,11.82A25.75,25.75,0,0,1,885,160.33a21.36,21.36,0,0,1-7.22,8.19,34.81,34.81,0,0,1-9.15,4.28,33,33,0,0,1-9.42,1.39,35.89,35.89,0,0,1-9.52-1.23,27.69,27.69,0,0,1-7.33-3,37.77,37.77,0,0,1-4.92-3.58,17.35,17.35,0,0,1-2.95-3.1Z"/><polygon class="cls-2" points="192.93 175.59 159.22 135.76 192.93 95.94 226.64 135.76 192.93 175.59"/></svg>