<svg viewBox="0 0 805 82" xmlns="http://www.w3.org/2000/svg">
 <defs>
  <style>.cls-1{fill:#fff;}.cls-2{fill:#e7011b;}</style>
 </defs>
 <g>
  <path id="svg_1" d="m51.89278,58.20252l0.65,-0.42q3.63,-2.15 5.13,-2.14q3.31,0 7.17,6q2.35,3.75 2.36,6.1a5,5 0 0 1 -1.45,3.63a20.88,20.88 0 0 1 -4.33,3.21c-0.64,0.43 -1.55,1 -2.73,1.72a39.42,39.42 0 0 1 -7.22,2.78a36.36,36.36 0 0 1 -10.92,1.71a39.63,39.63 0 0 1 -9.89,-1.34a43.56,43.56 0 0 1 -10.71,-4.49a44.06,44.06 0 0 1 -9.89,-7.7a35.27,35.27 0 0 1 -7.22,-11.67a41.47,41.47 0 0 1 -2.84,-15.57a39.4,39.4 0 0 1 2.78,-15a34.71,34.71 0 0 1 7.12,-11.23a41.72,41.72 0 0 1 9.89,-7.49a45.81,45.81 0 0 1 10.87,-4.39a41.72,41.72 0 0 1 10.21,-1.34a35.67,35.67 0 0 1 10.22,1.55a36.32,36.32 0 0 1 7.87,3.16l2.56,1.5a29.39,29.39 0 0 1 3,2a9,9 0 0 1 1.92,2.19a5.36,5.36 0 0 1 0.91,3a10.07,10.07 0 0 1 -2.24,5.77q-4.19,5.79 -7.49,5.78q-1.93,0 -5.46,-2.35q-4.5,-3.64 -12,-3.64a20.71,20.71 0 0 0 -6.84,1.23a26.51,26.51 0 0 0 -6.8,3.59a17.68,17.68 0 0 0 -5.4,6.63a21.17,21.17 0 0 0 -2.14,9.63a21.46,21.46 0 0 0 2.14,9.74a17.83,17.83 0 0 0 5.46,6.68a25.28,25.28 0 0 0 6.84,3.59a21.45,21.45 0 0 0 6.74,1.17a22.33,22.33 0 0 0 6.26,-0.85a16.44,16.44 0 0 0 4.23,-1.71l1.24,-1.03z" class="cls-1"/>
  <path id="svg_2" d="m151.94278,68.69252c-1.86,-2.28 -2.78,-4.17 -2.78,-5.67q0,-3.21 4.6,-7.71a7.81,7.81 0 0 1 5.35,-2.56q3.31,0 8.13,4.81l0.54,0.54a18.15,18.15 0 0 0 1.28,1.39a17.74,17.74 0 0 0 3.32,2.3a9.49,9.49 0 0 0 4.81,1.44q9.94,0 10,-8.13q0,-2.46 -2.73,-4.12a20.12,20.12 0 0 0 -6.79,-2.41a61.36,61.36 0 0 1 -17.55,-6.31a17.76,17.76 0 0 1 -6.79,-7.11a23.64,23.64 0 0 1 -2.73,-11.72a22.48,22.48 0 0 1 7,-16.43q7,-7 19.1,-7a39.22,39.22 0 0 1 11.71,1.65c3.53,1.11 6,2.23 7.33,3.37l2.14,1.61l0.54,0.43q3.32,3.11 3.31,5.13q0,2.25 -2.56,6q-3.64,5.34 -7.49,5.35a11.05,11.05 0 0 1 -5.57,-2.14a15.16,15.16 0 0 1 -1.23,-1.07a12,12 0 0 0 -1.66,-1.34a9.65,9.65 0 0 0 -2.51,-1a15.36,15.36 0 0 0 -4.12,-0.49a8.23,8.23 0 0 0 -4.87,1.66a5.13,5.13 0 0 0 -2.3,4.34a5.71,5.71 0 0 0 2.73,5a16.77,16.77 0 0 0 6.79,2.47a76.6,76.6 0 0 1 8.88,2a55,55 0 0 1 8.89,3.26a15.64,15.64 0 0 1 6.79,6.69a23.44,23.44 0 0 1 2.73,11.82a25.75,25.75 0 0 1 -2.78,12.14a21.38,21.38 0 0 1 -7.23,8.19a34.9,34.9 0 0 1 -9.14,4.28a33,33 0 0 1 -9.42,1.39a35.89,35.89 0 0 1 -9.52,-1.23a27.69,27.69 0 0 1 -7.33,-3a38.61,38.61 0 0 1 -4.93,-3.58a17.22,17.22 0 0 1 -2.94,-3.1l-1,-1.14z" class="cls-1"/>
  <path id="svg_3" d="m272.85278,1.17252a16.48,16.48 0 0 1 4.6,0.54a8.5,8.5 0 0 1 2.78,1.28a4.51,4.51 0 0 1 1.5,2.25a10.57,10.57 0 0 1 0.53,2.51c0,0.68 0,1.7 0,3l0,32.32a40.72,40.72 0 0 1 -2.3,13.48a43,43 0 0 1 -6.52,12.14a31,31 0 0 1 -11,8.88a33,33 0 0 1 -15,3.37a32.08,32.08 0 0 1 -14.77,-3.35a31.17,31.17 0 0 1 -10.86,-8.93a43.21,43.21 0 0 1 -8.67,-25.74l0,-32.2a33.94,33.94 0 0 1 0.16,-3.8a8.7,8.7 0 0 1 1,-2.84a4.69,4.69 0 0 1 2.89,-2.25a23.57,23.57 0 0 1 10.91,0a4.51,4.51 0 0 1 2.84,2.25a10.44,10.44 0 0 1 1,2.89a24.38,24.38 0 0 1 0.22,3.85l0,32.1a26.1,26.1 0 0 0 0.75,6.26a25.58,25.58 0 0 0 2.4,6.1a12.33,12.33 0 0 0 4.87,4.87a15.21,15.21 0 0 0 7.6,1.82q7.82,0 11.66,-5.78a23.53,23.53 0 0 0 3.86,-13.37l0,-32.77a22.9,22.9 0 0 1 0.21,-3.58a7.52,7.52 0 0 1 1.07,-2.62a5,5 0 0 1 2.89,-2a18.51,18.51 0 0 1 5.38,-0.68z" class="cls-1"/>
  <path id="svg_4" d="m330.73278,6.84252l28.9,59.75a14,14 0 0 1 1.82,5.46q0,3.84 -6.21,7a14.4,14.4 0 0 1 -6.1,1.82a5.1,5.1 0 0 1 -3.05,-1a6.37,6.37 0 0 1 -1.92,-2c-0.4,-0.72 -0.95,-1.79 -1.66,-3.22l-5.57,-11.55l-29.64,0l-5.57,11.49c-0.71,1.43 -1.27,2.47 -1.66,3.11a7.64,7.64 0 0 1 -1.92,2a5,5 0 0 1 -3.05,1a14.18,14.18 0 0 1 -6.1,-1.82c-4.14,-2 -6.21,-4.28 -6.21,-6.84a14,14 0 0 1 1.82,-5.46l28.89,-59.81a9.35,9.35 0 0 1 3.58,-4a9.48,9.48 0 0 1 5.09,-1.5q5.79,0.01 8.56,5.57zm-8.67,25.68l-7.06,14.66l14.23,0l-7.17,-14.66z" class="cls-1"/>
  <path id="svg_5" d="m386.27278,63.87252l29.1,0a21.58,21.58 0 0 1 3.16,0.17a7.82,7.82 0 0 1 2.3,0.8a3.69,3.69 0 0 1 1.82,2.35a15.85,15.85 0 0 1 0.53,4.6a15.38,15.38 0 0 1 -0.53,4.5a3.84,3.84 0 0 1 -1.87,2.4a7.92,7.92 0 0 1 -2.41,0.86a22,22 0 0 1 -3.1,0.16l-38.54,0a16.85,16.85 0 0 1 -4.6,-0.53a8.56,8.56 0 0 1 -2.79,-1.29a4.49,4.49 0 0 1 -1.44,-2.19a9.85,9.85 0 0 1 -0.54,-2.46c0,-0.68 0,-1.7 0,-3.05l0,-59.49a30.74,30.74 0 0 1 0.16,-3.7a8.65,8.65 0 0 1 1,-2.83a4.69,4.69 0 0 1 2.89,-2.25a18.58,18.58 0 0 1 5.45,-0.64a16.85,16.85 0 0 1 4.6,0.53a8.56,8.56 0 0 1 2.79,1.29a4.49,4.49 0 0 1 1.48,2.19a10,10 0 0 1 0.54,2.46c0,0.68 0.05,1.7 0.05,3l-0.05,53.12z" class="cls-1"/>
  <path id="svg_6" d="m507.50278,58.20252l0.64,-0.42c2.42,-1.43 4.14,-2.14 5.14,-2.14q3.32,0 7.17,6c1.56,2.5 2.35,4.53 2.35,6.1a5,5 0 0 1 -1.45,3.63a20.61,20.61 0 0 1 -4.33,3.21c-0.64,0.43 -1.55,1 -2.73,1.72a38.8,38.8 0 0 1 -7.22,2.78a36.35,36.35 0 0 1 -10.91,1.71a39.77,39.77 0 0 1 -9.9,-1.34a43.5,43.5 0 0 1 -10.7,-4.49a44.12,44.12 0 0 1 -9.9,-7.7a35.6,35.6 0 0 1 -7.22,-11.67a41.67,41.67 0 0 1 -2.84,-15.57a39.21,39.21 0 0 1 2.79,-15a34.53,34.53 0 0 1 7.11,-11.23a41.78,41.78 0 0 1 9.9,-7.49a45.92,45.92 0 0 1 10.86,-4.39a41.8,41.8 0 0 1 10.22,-1.34a40.67,40.67 0 0 1 18.08,4.71l2.57,1.5a30.25,30.25 0 0 1 2.94,2a9,9 0 0 1 1.93,2.19a5.44,5.44 0 0 1 0.91,3a10,10 0 0 1 -2.25,5.77q-4.17,5.79 -7.49,5.78q-1.92,0 -5.46,-2.35q-4.49,-3.64 -12,-3.64a20.76,20.76 0 0 0 -6.85,1.23a26.45,26.45 0 0 0 -6.79,3.59a17.7,17.7 0 0 0 -5.41,6.63a21.17,21.17 0 0 0 -2.14,9.63a21.46,21.46 0 0 0 2.21,9.68a18,18 0 0 0 5.46,6.68a25.18,25.18 0 0 0 6.85,3.59a21.4,21.4 0 0 0 6.74,1.17a22.33,22.33 0 0 0 6.26,-0.85a16.18,16.18 0 0 0 4.22,-1.71l1.24,-0.97z" class="cls-1"/>
  <path id="svg_7" d="m572.98278,6.84252l28.89,59.75a14,14 0 0 1 1.82,5.46q0,3.84 -6.21,7a14.33,14.33 0 0 1 -6.09,1.82a5.08,5.08 0 0 1 -3,-1a6.3,6.3 0 0 1 -1.93,-2c-0.39,-0.72 -0.95,-1.79 -1.66,-3.22l-5.56,-11.55l-29.69,0l-5.57,11.49c-0.71,1.43 -1.26,2.47 -1.65,3.11a7.87,7.87 0 0 1 -1.93,2a5,5 0 0 1 -3,1a14.26,14.26 0 0 1 -6.1,-1.82c-4.14,-2 -6.2,-4.28 -6.2,-6.84a14,14 0 0 1 1.81,-5.46l28.82,-59.84a9.85,9.85 0 0 1 8.67,-5.46q5.79,0 8.58,5.56zm-8.67,25.68l-7.06,14.66l14.23,0l-7.17,-14.66z" class="cls-1"/>
  <path id="svg_8" d="m669.60278,66.44252a17.06,17.06 0 0 1 1.61,5.57q0,4.07 -6.64,6.84a15,15 0 0 1 -5.77,1.5a5.1,5.1 0 0 1 -3.16,-1a7,7 0 0 1 -1.93,-2.09c-0.39,-0.71 -0.91,-1.82 -1.55,-3.32q-2.35,-5.34 -6.85,-16.05l-3.31,0.22l-13.49,0l0,12.08a30.44,30.44 0 0 1 -0.16,3.69a8.38,8.38 0 0 1 -1,2.83a4.69,4.69 0 0 1 -2.89,2.25a18.7,18.7 0 0 1 -5.46,0.64a16.52,16.52 0 0 1 -4.6,-0.53a8.71,8.71 0 0 1 -2.78,-1.28a4.6,4.6 0 0 1 -1.45,-2.2a9.35,9.35 0 0 1 -0.53,-2.46c0,-0.68 0,-1.69 0,-3l0,-59.43a30.74,30.74 0 0 1 0.16,-3.7a8.38,8.38 0 0 1 1,-2.83a4.72,4.72 0 0 1 2.89,-2.25a18.65,18.65 0 0 1 5.46,-0.64l23.11,0a26.51,26.51 0 0 1 9.26,1.77a34,34 0 0 1 9,5.08a25.2,25.2 0 0 1 7.06,9a28.33,28.33 0 0 1 2.78,12.62q0,12.09 -8,19.9q2.31,5.68 7.24,16.79zm-41.09,-27.28l13.7,0a10.26,10.26 0 0 0 6.21,-2.36c2.06,-1.56 3.1,-4 3.1,-7.17a8.34,8.34 0 0 0 -3.1,-7a10.34,10.34 0 0 0 -6.42,-2.41l-13.49,0l0,18.94z" class="cls-1"/>
  <path id="svg_9" d="m745.47278,40.01252a38.35,38.35 0 0 1 -11.51,27.93a37.68,37.68 0 0 1 -27.87,11.65l-19.58,0a17.68,17.68 0 0 1 -5.24,-0.64a4.89,4.89 0 0 1 -2.89,-2.08a7.8,7.8 0 0 1 -1.07,-2.89a26.88,26.88 0 0 1 -0.22,-3.91l0,-59.48a32.65,32.65 0 0 1 0.16,-3.75a8.76,8.76 0 0 1 1,-2.78a4.69,4.69 0 0 1 2.89,-2.25a19,19 0 0 1 5.46,-0.64q3.21,0 9.84,0.06t9.95,0q15.51,0 27.29,11.18a36.54,36.54 0 0 1 11.79,27.6zm-18.94,0.43a19.22,19.22 0 0 0 -6,-14.39a19.76,19.76 0 0 0 -14.18,-5.83l-10.32,0l0,40.44l10.38,0a20,20 0 0 0 13.91,-5.72a18.87,18.87 0 0 0 6.21,-14.5z" class="cls-1"/>
  <path id="svg_10" d="m749.21278,68.69252q-2.78,-3.42 -2.78,-5.67q0,-3.21 4.6,-7.71a7.83,7.83 0 0 1 5.35,-2.56q3.32,0 8.13,4.81l0.54,0.54a13.47,13.47 0 0 0 4.6,3.69a9.49,9.49 0 0 0 4.81,1.44q10,0 9.95,-8.13c0,-1.64 -0.9,-3 -2.72,-4.12a20.18,20.18 0 0 0 -6.8,-2.41a61.65,61.65 0 0 1 -17.55,-6.31a17.76,17.76 0 0 1 -6.79,-7.11a23.64,23.64 0 0 1 -2.73,-11.72a22.52,22.52 0 0 1 7,-16.43q7,-7 19.1,-7a39.33,39.33 0 0 1 11.72,1.65q5.3,1.66 7.32,3.37l2.14,1.61l0.54,0.43q3.32,3.11 3.32,5.13q0,2.25 -2.57,6q-3.64,5.34 -7.49,5.35a11.05,11.05 0 0 1 -5.57,-2.14a15.16,15.16 0 0 1 -1.23,-1.07a12,12 0 0 0 -1.65,-1.34a9.75,9.75 0 0 0 -2.52,-1a15.36,15.36 0 0 0 -4.12,-0.49a8.25,8.25 0 0 0 -4.87,1.66a5.13,5.13 0 0 0 -2.3,4.34a5.71,5.71 0 0 0 2.73,5a16.76,16.76 0 0 0 6.8,2.47a76.6,76.6 0 0 1 8.88,2a54.51,54.51 0 0 1 8.88,3.26a15.64,15.64 0 0 1 6.79,6.69a23.44,23.44 0 0 1 2.73,11.82a25.75,25.75 0 0 1 -2.72,12.18a21.36,21.36 0 0 1 -7.22,8.19a34.81,34.81 0 0 1 -9.15,4.28a33,33 0 0 1 -9.42,1.39a35.89,35.89 0 0 1 -9.52,-1.23a27.69,27.69 0 0 1 -7.33,-3a37.77,37.77 0 0 1 -4.92,-3.58a17.35,17.35 0 0 1 -2.95,-3.1l-1.01,-1.18z" class="cls-1"/>
  <polygon id="svg_11" points="108.66277313232422,82.1825180053711 74.9527816772461,42.352516174316406 108.66277313232422,2.5325241088867188 142.3727798461914,42.352516174316406 108.66277313232422,82.1825180053711 " class="cls-2"/>
 </g>
</svg>